<?xml version="1.0" standalone="no"?>
<!DOCTYPE svg PUBLIC "-//W3C//DTD SVG 20010904//EN"
 "http://www.w3.org/TR/2001/REC-SVG-20010904/DTD/svg10.dtd">
<svg version="1.0" xmlns="http://www.w3.org/2000/svg"
 width="359.000000pt" height="219.000000pt" viewBox="0 0 359.000000 219.000000"
 preserveAspectRatio="xMidYMid meet">

<g transform="translate(0.000000,219.000000) scale(0.100000,-0.100000)"
fill="#000000" stroke="none">
<path d="M1833 2023 c9 -2 25 -2 35 0 9 3 1 5 -18 5 -19 0 -27 -2 -17 -5z"/>
<path d="M2028 2023 c6 -2 18 -2 25 0 6 3 1 5 -13 5 -14 0 -19 -2 -12 -5z"/>
<path d="M1788 2013 c7 -3 16 -2 19 1 4 3 -2 6 -13 5 -11 0 -14 -3 -6 -6z"/>
<path d="M2105 2006 c22 -8 33 -14 25 -15 -13 -1 -13 -2 0 -11 13 -8 13 -10
-2 -10 -12 0 -15 -5 -11 -16 5 -12 1 -15 -13 -11 -56 17 -149 27 -233 25 l-96
-1 125 -7 c69 -4 153 -15 188 -24 55 -15 169 -59 180 -70 2 -3 -23 -37 -56
-78 -73 -91 -136 -194 -128 -213 3 -8 1 -17 -5 -20 -5 -4 -9 -3 -8 2 1 4 -2
17 -6 28 -5 11 -15 39 -24 62 l-16 42 -83 -42 c-45 -23 -109 -61 -141 -85 -73
-54 -205 -188 -197 -201 4 -5 1 -13 -5 -17 -8 -5 -10 -2 -5 7 4 8 -2 3 -13
-11 -34 -42 -83 -139 -75 -152 4 -6 3 -8 -3 -5 -13 8 -27 -39 -17 -55 4 -6 3
-8 -3 -5 -24 15 -32 -162 -10 -216 8 -18 21 -38 31 -46 13 -11 14 -17 4 -30
-7 -9 -8 -13 -4 -9 5 5 25 -4 44 -18 33 -26 99 -55 154 -68 26 -6 25 -3 -16
35 -72 65 -92 166 -62 304 19 83 100 219 184 307 l56 59 -29 24 -30 24 30 2
c54 2 149 -1 187 -7 35 -5 36 -7 26 -32 -5 -15 -18 -65 -27 -111 l-17 -85 -21
33 c-15 25 -23 30 -29 20 -5 -8 -9 -18 -9 -24 0 -5 -6 -10 -14 -10 -20 0 -106
-102 -142 -169 -146 -272 -6 -460 296 -399 86 18 161 52 240 108 260 185 357
502 244 796 -29 75 -85 166 -138 223 -71 76 -234 167 -326 180 l-40 6 40 -14z
m165 -204 c0 -4 -20 -28 -45 -52 -25 -25 -62 -69 -82 -97 -20 -29 -38 -53 -40
-53 -16 0 101 150 139 178 10 7 16 18 13 23 -4 5 -1 9 4 9 6 0 11 -4 11 -8z
m-317 -181 c-104 -50 -180 -100 -263 -175 -63 -56 -62 -56 7 12 85 82 157 132
250 172 98 42 102 36 6 -9z m-450 -681 c22 -42 17 -47 -14 -13 -13 14 -18 23
-10 18 11 -6 13 -4 6 11 -4 10 -9 46 -11 79 l-3 60 8 -61 c4 -33 15 -75 24
-94z m322 -147 c22 -13 33 -22 25 -22 -20 1 -88 27 -73 28 8 1 3 15 -12 37
-14 20 -25 44 -25 53 0 8 10 -5 23 -29 14 -30 36 -53 62 -67z"/>
<path d="M1690 1987 c-49 -21 -133 -67 -120 -67 3 0 23 7 45 15 51 18 84 20
67 3 -20 -20 -14 -31 14 -24 19 5 23 4 17 -6 -4 -7 -28 -43 -52 -80 -24 -38
-44 -68 -46 -68 -2 0 -6 7 -9 16 -3 8 -2 13 3 9 5 -3 27 22 49 54 35 53 37 60
21 64 -20 5 -31 -9 -73 -91 -15 -29 -30 -50 -35 -48 -11 7 -111 -93 -168 -167
-97 -126 -139 -278 -108 -396 9 -35 14 -65 12 -67 -4 -5 -37 39 -49 66 -5 11
-7 10 -7 -5 -1 -25 31 -92 59 -125 l21 -25 -7 35 c-25 126 34 325 141 476 83
116 240 255 358 315 20 11 37 24 37 29 0 5 -25 24 -55 42 -54 32 -67 51 -42
61 8 4 7 6 -3 6 -8 0 -40 -10 -70 -22z m118 -63 c18 -8 32 -18 32 -20 0 -3 -4
-3 -9 0 -5 4 -11 3 -13 -1 -1 -5 -13 2 -25 15 -26 26 -25 27 15 6z"/>
<path d="M1469 1843 c-13 -16 -12 -17 4 -4 9 7 17 15 17 17 0 8 -8 3 -21 -13z"/>
<path d="M1510 1764 c-125 -112 -241 -306 -239 -398 l1 -51 8 45 c18 108 123
277 232 375 27 25 48 50 46 57 -3 7 -22 -5 -48 -28z"/>
</g>
</svg>
